Coordinates
version=1
nRows=13
nColumns=40
inDegrees=yes

Units are S.I. units (second, meters, Newtons, ...)
Angles are in degrees.

endheader
time	pelvis_tilt	pelvis_list	pelvis_rotation	pelvis_tx	pelvis_ty	pelvis_tz	hip_flexion_r	hip_adduction_r	hip_rotation_r	knee_angle_r	knee_angle_r_beta	ankle_angle_r	subtalar_angle_r	mtp_angle_r	hip_flexion_l	hip_adduction_l	hip_rotation_l	knee_angle_l	knee_angle_l_beta	ankle_angle_l	subtalar_angle_l	mtp_angle_l	lumbar_extension	lumbar_bending	lumbar_rotation	arm_flex_r	arm_add_r	arm_rot_r	elbow_flex_r	pro_sup_r	wrist_flex_r	wrist_dev_r	arm_flex_l	arm_add_l	arm_rot_l	elbow_flex_l	pro_sup_l	wrist_flex_l	wrist_dev_l
     14.52000000	     -2.47512127	     -5.87229820	      3.01299706	      0.89173974	      0.93351736	      0.49873576	     10.61540350	      4.62150083	    -18.38437466	     16.42482537	     16.42482537	     10.20370765	      3.52636768	     -1.64635691	     26.94938806	    -13.98825747	      0.43211760	     61.25475429	     61.25475429	     11.72157367	    -18.59754913	     12.57431412	     -9.08360657	      7.98114601	      4.65825808	     17.84557234	    -15.02618600	     -8.20221284	     46.08009406	     45.47205385	      0.00000000	      0.00000000	     12.87717123	     -6.44111525	     -0.62300093	     36.34368283	     45.32577961	      0.00000000	      0.00000000
     14.53250000	     -2.57347521	     -5.73415029	      3.16546095	      0.89016827	      0.93420817	      0.49930697	     10.01372103	      4.63784858	    -18.34032055	     15.90697041	     15.90697041	     10.32841890	      3.48753748	     -1.59909617	     28.05422166	    -13.86378826	      0.25530790	     59.00439961	     59.00439961	     11.85571561	    -18.65936286	     12.92456779	     -9.03187348	      7.77371420	      4.48939580	     20.10269097	    -15.07476637	     -8.38179619	     47.35664907	     45.44859707	      0.00000000	      0.00000000	     11.49960046	     -6.59693232	     -0.51149044	     34.82410297	     45.29999115	      0.00000000	      0.00000000
     14.54500000	     -2.60694853	     -5.70953941	      3.33963012	      0.88866955	      0.93483098	      0.49979964	      9.27453279	      4.77734872	    -18.44693720	     15.25223971	     15.25223971	     10.39729505	      3.71173551	     -1.64578174	     28.93677086	    -13.81179086	      0.13082340	     56.51298296	     56.51298296	     11.91103254	    -18.61710039	     13.16453647	     -9.04045463	      7.74992652	      4.28911560	     22.38021014	    -15.12142128	     -8.45301120	     48.88419681	     45.41245753	      0.00000000	      0.00000000	     10.29524378	     -6.71362750	     -0.32719997	     32.70805190	     45.27527900	      0.00000000	      0.00000000
     14.55750000	     -2.66838642	     -5.61159322	      3.47207665	      0.88717517	      0.93529204	      0.50025799	      8.58181697	      4.82802155	    -18.55836667	     14.62469904	     14.62469904	     10.40159697	      3.96179434	     -2.04256601	     29.62352012	    -13.64719248	     -0.07822294	     53.70195520	     53.70195520	     11.70467798	    -18.59070014	     13.13636000	     -9.02749409	      7.61709715	      4.65172606	     24.10273128	    -15.62129320	     -8.35130956	     50.75694205	     45.36495545	      0.00000000	      0.00000000	      9.88904163	     -6.53151277	     -0.00644290	     29.25017362	     45.29151699	      0.00000000	      0.00000000
     14.57000000	     -2.70105980	     -5.53258024	      3.59205246	      0.88571873	      0.93559301	      0.50056469	      7.88148005	      4.90405234	    -18.56071500	     14.04009506	     14.04009506	     10.55811015	      4.11052519	     -2.07244764	     30.14731495	    -13.42329691	     -0.22778992	     50.72699221	     50.72699221	     11.51390204	    -18.49318887	     13.49434443	     -9.08238322	      7.52163399	      4.55729156	     26.24806585	    -15.70194800	     -8.48424760	     52.19938561	     45.33417727	      0.00000000	      0.00000000	      8.53447116	     -6.66587999	      0.09871374	     28.01645988	     45.26953627	      0.00000000	      0.00000000
     14.58250000	     -2.79250458	     -5.41697455	      3.67918221	      0.88425832	      0.93559108	      0.50072028	      7.29730397	      4.90826385	    -18.51749523	     13.56319871	     13.56319871	     10.78241912	      4.22786677	     -2.14757305	     30.59857783	    -13.08770532	     -0.33521525	     47.58987818	     47.58987818	     11.21009334	    -18.26493036	     13.86931595	     -9.06011058	      7.39530683	      4.67741207	     28.25598243	    -15.92927574	     -8.58487159	     53.42921423	     45.30777276	      0.00000000	      0.00000000	      7.26449447	     -6.75843861	      0.19966034	     26.93941660	     45.24360643	      0.00000000	      0.00000000
     14.59500000	     -2.83686281	     -5.37190410	      3.78513263	      0.88281520	      0.93533915	      0.50074965	      6.60949452	      5.00556869	    -18.54768753	     12.97247232	     12.97247232	     11.02271617	      4.45119272	     -2.30534374	     30.93239154	    -12.73621017	     -0.27943731	     44.37235582	     44.37235582	     10.79784060	    -17.98303740	     13.95045352	     -9.09635860	      7.35000101	      4.51193304	     30.32987179	    -15.93574285	     -8.57951464	     54.98053819	     45.26742258	      0.00000000	      0.00000000	      6.02011814	     -6.87790088	      0.39790376	     25.48814625	     45.20927969	      0.00000000	      0.00000000
     14.60750000	     -2.91997775	     -5.29280283	      3.85001375	      0.88137847	      0.93483294	      0.50063202	      6.02960258	      5.03522483	    -18.50141181	     12.51799663	     12.51799663	     11.31408417	      4.56709378	     -2.49861118	     31.18575169	    -12.31467761	     -0.20645928	     41.04215778	     41.04215778	     10.27485016	    -17.42063581	     13.97550134	     -9.07242796	      7.25839376	      4.55228345	     32.22900675	    -16.12204512	     -8.59245241	     56.34554282	     45.23353493	      0.00000000	      0.00000000	      4.79882336	     -6.98586279	      0.55767862	     24.39285530	     45.17624143	      0.00000000	      0.00000000
     14.62000000	     -3.04863166	     -5.30266190	      3.92775628	      0.87995194	      0.93396835	      0.50039488	      5.46112968	      5.16064962	    -18.50125088	     11.97531143	     11.97531143	     11.57135654	      4.78031487	     -2.96851675	     31.46414802	    -11.97273230	     -0.08798583	     37.72281360	     37.72281360	      9.28309531	    -16.59777427	     12.79927928	     -9.02378501	      7.29128736	      4.56553142	     33.95196609	    -16.31389157	     -8.40057427	     58.18210264	     45.18201596	      0.00000000	      0.00000000	      3.61997412	     -7.08472005	      0.94216020	     23.10136132	     45.12205151	      0.00000000	      0.00000000
     14.63250000	     -3.11244164	     -5.26131773	      3.99680304	      0.87859082	      0.93299363	      0.49996015	      4.92557488	      5.19834559	    -18.38534532	     11.66696179	     11.66696179	     11.99278416	      4.75234811	     -3.21922901	     31.64168463	    -11.56392158	      0.03819040	     34.55194477	     34.55194477	      8.81533447	    -15.27130575	     12.71993988	     -9.02982074	      7.22657020	      4.69231443	     35.71234880	    -16.57678678	     -8.47382239	     59.38594597	     45.15641429	      0.00000000	      0.00000000	      2.36761031	     -7.18322373	      1.06241502	     22.52448619	     45.08750666	      0.00000000	      0.00000000
     14.64500000	     -3.20458990	     -5.29780686	      4.07483120	      0.87734857	      0.93177571	      0.49948673	      4.39012417	      5.32484880	    -18.33306470	     11.31389400	     11.31389400	     12.45649084	      4.75136826	     -3.51096260	     31.86568623	    -11.24820817	      0.15562200	     31.57201306	     31.57201306	      8.32547933	    -13.63075294	     12.52300063	     -8.95543596	      7.25486860	      4.71654318	     37.42118067	    -16.73746137	     -8.50686184	     60.69191578	     45.12518506	      0.00000000	      0.00000000	      1.01512529	     -7.32690923	      1.17676538	     22.00925943	     45.04917246	      0.00000000	      0.00000000
     14.65750000	     -3.30242766	     -5.32374231	      4.18820443	      0.87608692	      0.93053457	      0.49874099	      3.86752699	      5.41827798	    -18.23725140	     10.96514147	     10.96514147	     12.85515980	      4.76062486	     -3.81040114	     32.05516805	    -10.90970253	      0.19416171	     28.73792469	     28.73792469	      7.84287192	    -11.73379195	     12.24357309	     -8.91139884	      7.31048412	      4.68426192	     39.03324025	    -16.83883553	     -8.50078326	     62.03011934	     45.09107340	      0.00000000	      0.00000000	     -0.28174035	     -7.41240597	      1.29696869	     21.64511793	     45.00775413	      0.00000000	      0.00000000
     14.67000000	     -3.39676441	     -5.42735162	      4.31134580	      0.87492771	      0.92918877	      0.49795165	      3.37737181	      5.57818947	    -18.14713105	     10.69435534	     10.69435534	     13.24155941	      4.75844275	     -4.10257404	     32.28069641	    -10.64465399	      0.27245302	     26.22369622	     26.22369622	      7.36593248	     -9.83118809	     12.05458509	     -8.83880919	      7.38826762	      4.69787683	     40.53566737	    -17.00950934	     -8.51696336	     63.24603705	     45.06106366	      0.00000000	      0.00000000	     -1.53786306	     -7.48686615	      1.38981239	     21.36429851	     44.96931857	      0.00000000	      0.00000000
